<svg id="visual" viewBox="0 0 900 600" width="900" height="600" xmlns="http://www.w3.org/2000/svg" xmlns:xlink="http://www.w3.org/1999/xlink" version="1.1"><rect x="0" y="0" width="900" height="600" fill="#001220"></rect><defs><linearGradient id="grad1_0" x1="33.3%" y1="0%" x2="100%" y2="100%"><stop offset="20%" stop-color="#001220" stop-opacity="1"></stop><stop offset="80%" stop-color="#001220" stop-opacity="1"></stop></linearGradient></defs><defs><linearGradient id="grad2_0" x1="0%" y1="0%" x2="66.7%" y2="100%"><stop offset="20%" stop-color="#001220" stop-opacity="1"></stop><stop offset="80%" stop-color="#001220" stop-opacity="1"></stop></linearGradient></defs><g transform="translate(900, 0)"><path d="M0 405.6C-23.4 403.1 -46.9 400.5 -69.8 395.9C-92.7 391.3 -115.2 384.7 -137.2 376.8C-159.1 368.9 -180.6 359.8 -201.5 349C-222.4 338.3 -242.6 325.9 -260.7 310.7C-278.8 295.5 -294.8 277.4 -306.4 257.1C-318 236.8 -325.3 214.3 -335.2 193.5C-345 172.7 -357.3 153.5 -364.6 132.7C-371.9 111.9 -374.1 89.4 -380.1 67C-386.1 44.6 -395.9 22.3 -405.6 0L0 0Z" fill="#FBAE3C"></path></g><g transform="translate(0, 600)"><path d="M0 -405.6C22.8 -401.4 45.7 -397.2 69.6 -394.9C93.6 -392.7 118.7 -392.4 138.7 -381.2C158.8 -369.9 173.8 -347.8 192.5 -333.4C211.2 -319.1 233.5 -312.5 251.3 -299.5C269.2 -286.5 282.6 -267.1 297.2 -249.4C311.9 -231.7 327.7 -215.6 341.2 -197C354.7 -178.4 365.7 -157.4 372.1 -135.4C378.5 -113.5 380.3 -90.6 385.1 -67.9C389.9 -45.2 397.7 -22.6 405.6 0L0 0Z" fill="#FBAE3C"></path></g></svg>