<svg id="visual" viewBox="0 0 900 600" width="900" height="600" xmlns="http://www.w3.org/2000/svg"
    xmlns:xlink="http://www.w3.org/1999/xlink" version="1.1">
    <rect x="0" y="0" width="900" height="600" fill="#001220"></rect>
    <path 
        d="M0 449L21.5 434.3C43 419.7 86 390.3 128.8 377.7C171.7 365 214.3 369 257.2 380.8C300 392.7 343 412.3 385.8 415.3C428.7 418.3 471.3 404.7 514.2 403.5C557 402.3 600 413.7 642.8 408C685.7 402.3 728.3 379.7 771.2 379.7C814 379.7 857 402.3 878.5 413.7L900 425L900 601L878.5 601C857 601 814 601 771.2 601C728.3 601 685.7 601 642.8 601C600 601 557 601 514.2 601C471.3 601 428.7 601 385.8 601C343 601 300 601 257.2 601C214.3 601 171.7 601 128.8 601C86 601 43 601 21.5 601L0 601Z"
        fill="#fa7268"></path>
    <path
        d="M0 394L21.5 405.5C43 417 86 440 128.8 450.8C171.7 461.7 214.3 460.3 257.2 459.5C300 458.7 343 458.3 385.8 449.7C428.7 441 471.3 424 514.2 422.7C557 421.3 600 435.7 642.8 437.3C685.7 439 728.3 428 771.2 421.7C814 415.3 857 413.7 878.5 412.8L900 412L900 601L878.5 601C857 601 814 601 771.2 601C728.3 601 685.7 601 642.8 601C600 601 557 601 514.2 601C471.3 601 428.7 601 385.8 601C343 601 300 601 257.2 601C214.3 601 171.7 601 128.8 601C86 601 43 601 21.5 601L0 601Z"
        fill="#ef5f67"></path>
    <path
        d="M0 478L21.5 471.8C43 465.7 86 453.3 128.8 448.5C171.7 443.7 214.3 446.3 257.2 446.5C300 446.7 343 444.3 385.8 453.8C428.7 463.3 471.3 484.7 514.2 486.8C557 489 600 472 642.8 472.7C685.7 473.3 728.3 491.7 771.2 500.2C814 508.7 857 507.3 878.5 506.7L900 506L900 601L878.5 601C857 601 814 601 771.2 601C728.3 601 685.7 601 642.8 601C600 601 557 601 514.2 601C471.3 601 428.7 601 385.8 601C343 601 300 601 257.2 601C214.3 601 171.7 601 128.8 601C86 601 43 601 21.5 601L0 601Z"
        fill="#e34c67"></path>
    <path
        d="M0 536L21.5 531.3C43 526.7 86 517.3 128.8 514.8C171.7 512.3 214.3 516.7 257.2 521.8C300 527 343 533 385.8 535C428.7 537 471.3 535 514.2 531.7C557 528.3 600 523.7 642.8 516.7C685.7 509.7 728.3 500.3 771.2 503.2C814 506 857 521 878.5 528.5L900 536L900 601L878.5 601C857 601 814 601 771.2 601C728.3 601 685.7 601 642.8 601C600 601 557 601 514.2 601C471.3 601 428.7 601 385.8 601C343 601 300 601 257.2 601C214.3 601 171.7 601 128.8 601C86 601 43 601 21.5 601L0 601Z"
        fill="#d53867"></path>
    <path
        d="M0 547L21.5 545.3C43 543.7 86 540.3 128.8 540C171.7 539.7 214.3 542.3 257.2 542.7C300 543 343 541 385.8 539.3C428.7 537.7 471.3 536.3 514.2 538.2C557 540 600 545 642.8 543.5C685.7 542 728.3 534 771.2 535.2C814 536.3 857 546.7 878.5 551.8L900 557L900 601L878.5 601C857 601 814 601 771.2 601C728.3 601 685.7 601 642.8 601C600 601 557 601 514.2 601C471.3 601 428.7 601 385.8 601C343 601 300 601 257.2 601C214.3 601 171.7 601 128.8 601C86 601 43 601 21.5 601L0 601Z"
        fill="#c62368"></path>
</svg>