<svg id="visual" viewBox="0 0 900 600" width="900" height="600" xmlns="http://www.w3.org/2000/svg"
    xmlns:xlink="http://www.w3.org/1999/xlink" version="1.1">
    <rect x="0" y="0" width="900" height="600" fill="#001220"></rect>
    <defs>
        <linearGradient id="grad1_0" x1="33.3%" y1="0%" x2="100%" y2="100%">
            <stop offset="20%" stop-color="#001220" stop-opacity="1"></stop>
            <stop offset="80%" stop-color="#001220" stop-opacity="1"></stop>
        </linearGradient>
    </defs>
    <defs>
        <linearGradient id="grad2_0" x1="0%" y1="0%" x2="66.7%" y2="100%">
            <stop offset="20%" stop-color="#001220" stop-opacity="1"></stop>
            <stop offset="80%" stop-color="#001220" stop-opacity="1"></stop>
        </linearGradient>
    </defs>
    <g transform="translate(900, 0)">
        <path
            d="M0 216.3C-16.3 208.4 -32.7 200.5 -53.3 199C-74 197.5 -98.9 202.4 -108.2 187.3C-117.4 172.3 -111 137.2 -121.6 121.6C-132.2 106.1 -159.7 110 -176.7 102C-193.6 94 -199.9 73.9 -204.8 54.9C-209.6 35.9 -213 17.9 -216.3 0L0 0Z"
            fill="#FF0066"></path>
    </g>
    <g transform="translate(0, 600)">
        <path
            d="M0 -216.3C14.8 -200.8 29.7 -185.3 49.2 -183.5C68.7 -181.8 92.9 -193.8 108.2 -187.3C123.5 -180.9 129.9 -156.1 137.2 -137.2C144.5 -118.2 152.6 -105.1 157.6 -91C162.7 -76.9 164.6 -61.9 173.9 -46.6C183.1 -31.3 199.7 -15.6 216.3 0L0 0Z"
            fill="#FF0066"></path>
    </g>
</svg>