<svg id="visual" viewBox="0 0 900 600" width="900" height="600" xmlns="http://www.w3.org/2000/svg"
    xmlns:xlink="http://www.w3.org/1999/xlink" version="1.1">
    <rect x="0" y="0" width="900" height="600" fill="#001220"></rect>
    <path
        d="M0 405L21.5 409.7C43 414.3 86 423.7 128.8 420.2C171.7 416.7 214.3 400.3 257.2 386.7C300 373 343 362 385.8 363.3C428.7 364.7 471.3 378.3 514.2 394C557 409.7 600 427.3 642.8 436C685.7 444.7 728.3 444.3 771.2 441.5C814 438.7 857 433.3 878.5 430.7L900 428L900 601L878.5 601C857 601 814 601 771.2 601C728.3 601 685.7 601 642.8 601C600 601 557 601 514.2 601C471.3 601 428.7 601 385.8 601C343 601 300 601 257.2 601C214.3 601 171.7 601 128.8 601C86 601 43 601 21.5 601L0 601Z"
        fill="#fa7268"></path>
    <path
        d="M0 399L21.5 410.3C43 421.7 86 444.3 128.8 453.8C171.7 463.3 214.3 459.7 257.2 452.8C300 446 343 436 385.8 426C428.7 416 471.3 406 514.2 401.5C557 397 600 398 642.8 405.2C685.7 412.3 728.3 425.7 771.2 436.2C814 446.7 857 454.3 878.5 458.2L900 462L900 601L878.5 601C857 601 814 601 771.2 601C728.3 601 685.7 601 642.8 601C600 601 557 601 514.2 601C471.3 601 428.7 601 385.8 601C343 601 300 601 257.2 601C214.3 601 171.7 601 128.8 601C86 601 43 601 21.5 601L0 601Z"
        fill="#ef5f67"></path>
    <path
        d="M0 503L21.5 493.3C43 483.7 86 464.3 128.8 459.2C171.7 454 214.3 463 257.2 470.7C300 478.3 343 484.7 385.8 481.3C428.7 478 471.3 465 514.2 456C557 447 600 442 642.8 441.2C685.7 440.3 728.3 443.7 771.2 453.3C814 463 857 479 878.5 487L900 495L900 601L878.5 601C857 601 814 601 771.2 601C728.3 601 685.7 601 642.8 601C600 601 557 601 514.2 601C471.3 601 428.7 601 385.8 601C343 601 300 601 257.2 601C214.3 601 171.7 601 128.8 601C86 601 43 601 21.5 601L0 601Z"
        fill="#e34c67"></path>
    <path
        d="M0 522L21.5 523C43 524 86 526 128.8 525.8C171.7 525.7 214.3 523.3 257.2 519.5C300 515.7 343 510.3 385.8 509.5C428.7 508.7 471.3 512.3 514.2 515C557 517.7 600 519.3 642.8 520.5C685.7 521.7 728.3 522.3 771.2 517.2C814 512 857 501 878.5 495.5L900 490L900 601L878.5 601C857 601 814 601 771.2 601C728.3 601 685.7 601 642.8 601C600 601 557 601 514.2 601C471.3 601 428.7 601 385.8 601C343 601 300 601 257.2 601C214.3 601 171.7 601 128.8 601C86 601 43 601 21.5 601L0 601Z"
        fill="#d53867"></path>
    <!-- <path
        d="M0 545L21.5 543.8C43 542.7 86 540.3 128.8 537C171.7 533.7 214.3 529.3 257.2 535.2C300 541 343 557 385.8 562.5C428.7 568 471.3 563 514.2 555.2C557 547.3 600 536.7 642.8 534.3C685.7 532 728.3 538 771.2 538.8C814 539.7 857 535.3 878.5 533.2L900 531L900 601L878.5 601C857 601 814 601 771.2 601C728.3 601 685.7 601 642.8 601C600 601 557 601 514.2 601C471.3 601 428.7 601 385.8 601C343 601 300 601 257.2 601C214.3 601 171.7 601 128.8 601C86 601 43 601 21.5 601L0 601Z"
        fill="#c62368"></path> -->
</svg>