<svg id="visual" viewBox="0 0 900 600" width="900" height="600" xmlns="http://www.w3.org/2000/svg"
    xmlns:xlink="http://www.w3.org/1999/xlink" version="1.1">
    <rect x="0" y="0" width="900" height="600" fill="#001220"></rect>
    <defs>
        <linearGradient id="grad1_0" x1="33.3%" y1="0%" x2="100%" y2="100%">
            <stop offset="20%" stop-color="#001220" stop-opacity="1"></stop>
            <stop offset="80%" stop-color="#001220" stop-opacity="1"></stop>
        </linearGradient>
    </defs>
    <defs>
        <linearGradient id="grad2_0" x1="0%" y1="0%" x2="66.7%" y2="100%">
            <stop offset="20%" stop-color="#001220" stop-opacity="1"></stop>
            <stop offset="80%" stop-color="#001220" stop-opacity="1"></stop>
        </linearGradient>
    </defs>
    <g transform="translate(900, 0)">
        <path
            d="M0 216.3C-19.7 211.7 -39.4 207.1 -52 194.2C-64.7 181.2 -70.2 160 -90 155.9C-109.8 151.7 -143.7 164.7 -153 153C-162.2 141.3 -146.8 105 -145.5 84C-144.1 63 -156.8 57.3 -171 45.8C-185.1 34.4 -200.7 17.2 -216.3 0L0 0Z"
            fill="#FF0066"></path>
    </g>
    <g transform="translate(0, 600)">
        <path
            d="M0 -216.3C13.7 -196.5 27.3 -176.7 46.8 -174.8C66.4 -173 91.8 -189 104.5 -181C117.2 -173 117.2 -140.9 121.6 -121.6C126 -102.3 134.7 -95.9 152.4 -88C170.1 -80.1 196.8 -70.9 209 -56C221.1 -41.1 218.7 -20.5 216.3 0L0 0Z"
            fill="#FF0066"></path>
    </g>
</svg>