<svg id="visual" viewBox="0 0 900 450" width="900" height="450" xmlns="http://www.w3.org/2000/svg" xmlns:xlink="http://www.w3.org/1999/xlink" version="1.1"><path d="M0 325L15 325.8C30 326.7 60 328.3 90 331.5C120 334.7 150 339.3 180 339.3C210 339.3 240 334.7 270 333.3C300 332 330 334 360 329C390 324 420 312 450 317.3C480 322.7 510 345.3 540 352.7C570 360 600 352 630 341.2C660 330.3 690 316.7 720 316.8C750 317 780 331 810 330.5C840 330 870 315 885 307.5L900 300L900 451L885 451C870 451 840 451 810 451C780 451 750 451 720 451C690 451 660 451 630 451C600 451 570 451 540 451C510 451 480 451 450 451C420 451 390 451 360 451C330 451 300 451 270 451C240 451 210 451 180 451C150 451 120 451 90 451C60 451 30 451 15 451L0 451Z" fill="#000000"></path><path d="M0 385L15 384.2C30 383.3 60 381.7 90 379C120 376.3 150 372.7 180 365.8C210 359 240 349 270 345.2C300 341.3 330 343.7 360 347.2C390 350.7 420 355.3 450 360.2C480 365 510 370 540 372.8C570 375.7 600 376.3 630 376.3C660 376.3 690 375.7 720 367.7C750 359.7 780 344.3 810 344.3C840 344.3 870 359.7 885 367.3L900 375L900 451L885 451C870 451 840 451 810 451C780 451 750 451 720 451C690 451 660 451 630 451C600 451 570 451 540 451C510 451 480 451 450 451C420 451 390 451 360 451C330 451 300 451 270 451C240 451 210 451 180 451C150 451 120 451 90 451C60 451 30 451 15 451L0 451Z" fill="#65323e"></path><path d="M0 381L15 382.3C30 383.7 60 386.3 90 384C120 381.7 150 374.3 180 378.2C210 382 240 397 270 400.3C300 403.7 330 395.3 360 389.7C390 384 420 381 450 377.7C480 374.3 510 370.7 540 374C570 377.3 600 387.7 630 395C660 402.3 690 406.7 720 403.8C750 401 780 391 810 387.2C840 383.3 870 385.7 885 386.8L900 388L900 451L885 451C870 451 840 451 810 451C780 451 750 451 720 451C690 451 660 451 630 451C600 451 570 451 540 451C510 451 480 451 450 451C420 451 390 451 360 451C330 451 300 451 270 451C240 451 210 451 180 451C150 451 120 451 90 451C60 451 30 451 15 451L0 451Z" fill="#af7681"></path><path d="M0 412L15 414.2C30 416.3 60 420.7 90 423.8C120 427 150 429 180 428.5C210 428 240 425 270 422.3C300 419.7 330 417.3 360 418.2C390 419 420 423 450 423.5C480 424 510 421 540 416.3C570 411.7 600 405.3 630 407.3C660 409.3 690 419.7 720 418.5C750 417.3 780 404.7 810 403.5C840 402.3 870 412.7 885 417.8L900 423L900 451L885 451C870 451 840 451 810 451C780 451 750 451 720 451C690 451 660 451 630 451C600 451 570 451 540 451C510 451 480 451 450 451C420 451 390 451 360 451C330 451 300 451 270 451C240 451 210 451 180 451C150 451 120 451 90 451C60 451 30 451 15 451L0 451Z" fill="#ffc0cb"></path></svg>