<svg id="visual" viewBox="0 0 960 300" width="960" height="300" xmlns="http://www.w3.org/2000/svg" xmlns:xlink="http://www.w3.org/1999/xlink" version="1.1"><path d="M0 55L20 60.5C40 66 80 77 120 77C160 77 200 66 240 65.5C280 65 320 75 360 73.5C400 72 440 59 480 56C520 53 560 60 600 69C640 78 680 89 720 92.5C760 96 800 92 840 89.5C880 87 920 86 940 85.5L960 85L960 0L940 0C920 0 880 0 840 0C800 0 760 0 720 0C680 0 640 0 600 0C560 0 520 0 480 0C440 0 400 0 360 0C320 0 280 0 240 0C200 0 160 0 120 0C80 0 40 0 20 0L0 0Z" fill="#ff0000"></path><path d="M0 103L20 108.5C40 114 80 125 120 125C160 125 200 114 240 111.5C280 109 320 115 360 112.5C400 110 440 99 480 97.5C520 96 560 104 600 111C640 118 680 124 720 124.5C760 125 800 120 840 118C880 116 920 117 940 117.5L960 118L960 83L940 83.5C920 84 880 85 840 87.5C800 90 760 94 720 90.5C680 87 640 76 600 67C560 58 520 51 480 54C440 57 400 70 360 71.5C320 73 280 63 240 63.5C200 64 160 75 120 75C80 75 40 64 20 58.5L0 53Z" fill="#db0000"></path><path d="M0 133L20 139C40 145 80 157 120 157.5C160 158 200 147 240 143C280 139 320 142 360 140C400 138 440 131 480 130.5C520 130 560 136 600 141C640 146 680 150 720 149.5C760 149 800 144 840 142C880 140 920 141 940 141.5L960 142L960 116L940 115.5C920 115 880 114 840 116C800 118 760 123 720 122.5C680 122 640 116 600 109C560 102 520 94 480 95.5C440 97 400 108 360 110.5C320 113 280 107 240 109.5C200 112 160 123 120 123C80 123 40 112 20 106.5L0 101Z" fill="#b70001"></path><path d="M0 160L20 166C40 172 80 184 120 184.5C160 185 200 174 240 169C280 164 320 165 360 164C400 163 440 160 480 159.5C520 159 560 161 600 166C640 171 680 179 720 179C760 179 800 171 840 168.5C880 166 920 169 940 170.5L960 172L960 140L940 139.5C920 139 880 138 840 140C800 142 760 147 720 147.5C680 148 640 144 600 139C560 134 520 128 480 128.5C440 129 400 136 360 138C320 140 280 137 240 141C200 145 160 156 120 155.5C80 155 40 143 20 137L0 131Z" fill="#910000"></path><path d="M0 196L20 201.5C40 207 80 218 120 218C160 218 200 207 240 203C280 199 320 202 360 205C400 208 440 211 480 209.5C520 208 560 202 600 205C640 208 680 220 720 225.5C760 231 800 230 840 229.5C880 229 920 229 940 229L960 229L960 170L940 168.5C920 167 880 164 840 166.5C800 169 760 177 720 177C680 177 640 169 600 164C560 159 520 157 480 157.5C440 158 400 161 360 162C320 163 280 162 240 167C200 172 160 183 120 182.5C80 182 40 170 20 164L0 158Z" fill="#690000"></path><path d="M0 301L20 301C40 301 80 301 120 301C160 301 200 301 240 301C280 301 320 301 360 301C400 301 440 301 480 301C520 301 560 301 600 301C640 301 680 301 720 301C760 301 800 301 840 301C880 301 920 301 940 301L960 301L960 227L940 227C920 227 880 227 840 227.5C800 228 760 229 720 223.5C680 218 640 206 600 203C560 200 520 206 480 207.5C440 209 400 206 360 203C320 200 280 197 240 201C200 205 160 216 120 216C80 216 40 205 20 199.5L0 194Z" fill="#000000"></path></svg>