<svg id="visual" viewBox="0 0 900 200" width="900" height="200" xmlns="http://www.w3.org/2000/svg" xmlns:xlink="http://www.w3.org/1999/xlink" version="1.1"><rect x="0" y="0" width="900" height="200" fill="#ee82ee"></rect><path d="M0 118L7.2 119.8C14.3 121.7 28.7 125.3 43 122.8C57.3 120.3 71.7 111.7 86 112C100.3 112.3 114.7 121.7 128.8 117.8C143 114 157 97 171.2 95.2C185.3 93.3 199.7 106.7 214 108.3C228.3 110 242.7 100 257 94.7C271.3 89.3 285.7 88.7 300 95C314.3 101.3 328.7 114.7 343 114.2C357.3 113.7 371.7 99.3 386 90C400.3 80.7 414.7 76.3 428.8 77.3C443 78.3 457 84.7 471.2 82.8C485.3 81 499.7 71 514 78.3C528.3 85.7 542.7 110.3 557 120.2C571.3 130 585.7 125 600 121C614.3 117 628.7 114 643 108.7C657.3 103.3 671.7 95.7 686 87.8C700.3 80 714.7 72 728.8 73.7C743 75.3 757 86.7 771.2 89C785.3 91.3 799.7 84.7 814 78.2C828.3 71.7 842.7 65.3 857 66.7C871.3 68 885.7 77 892.8 81.5L900 86L900 201L892.8 201C885.7 201 871.3 201 857 201C842.7 201 828.3 201 814 201C799.7 201 785.3 201 771.2 201C757 201 743 201 728.8 201C714.7 201 700.3 201 686 201C671.7 201 657.3 201 643 201C628.7 201 614.3 201 600 201C585.7 201 571.3 201 557 201C542.7 201 528.3 201 514 201C499.7 201 485.3 201 471.2 201C457 201 443 201 428.8 201C414.7 201 400.3 201 386 201C371.7 201 357.3 201 343 201C328.7 201 314.3 201 300 201C285.7 201 271.3 201 257 201C242.7 201 228.3 201 214 201C199.7 201 185.3 201 171.2 201C157 201 143 201 128.8 201C114.7 201 100.3 201 86 201C71.7 201 57.3 201 43 201C28.7 201 14.3 201 7.2 201L0 201Z" fill="#FF0066" stroke-linecap="round" stroke-linejoin="miter"></path></svg>