<svg id="visual" viewBox="0 0 900 150" width="900" height="150" xmlns="http://www.w3.org/2000/svg" xmlns:xlink="http://www.w3.org/1999/xlink" version="1.1"><rect x="0" y="0" width="900" height="150" fill="#001829"></rect><path d="M0 70L21.5 71.3C43 72.7 86 75.3 128.8 81.3C171.7 87.3 214.3 96.7 257.2 98.3C300 100 343 94 385.8 89.3C428.7 84.7 471.3 81.3 514.2 86.3C557 91.3 600 104.7 642.8 110.2C685.7 115.7 728.3 113.3 771.2 104.3C814 95.3 857 79.7 878.5 71.8L900 64L900 151L878.5 151C857 151 814 151 771.2 151C728.3 151 685.7 151 642.8 151C600 151 557 151 514.2 151C471.3 151 428.7 151 385.8 151C343 151 300 151 257.2 151C214.3 151 171.7 151 128.8 151C86 151 43 151 21.5 151L0 151Z" fill="#f778f4" stroke-linecap="round" stroke-linejoin="miter"></path></svg>