<svg id="visual" viewBox="0 0 900 200" width="900" height="200" xmlns="http://www.w3.org/2000/svg" xmlns:xlink="http://www.w3.org/1999/xlink" version="1.1"><rect x="0" y="0" width="900" height="200" fill="#ee82ee"></rect><path d="M0 175L7.2 175.5C14.3 176 28.7 177 43 176.2C57.3 175.3 71.7 172.7 86 172.7C100.3 172.7 114.7 175.3 128.8 174.2C143 173 157 168 171.2 167.5C185.3 167 199.7 171 214 171.5C228.3 172 242.7 169 257 167.5C271.3 166 285.7 166 300 168C314.3 170 328.7 174 343 173.8C357.3 173.7 371.7 169.3 386 166.5C400.3 163.7 414.7 162.3 428.8 162.7C443 163 457 165 471.2 164.3C485.3 163.7 499.7 160.3 514 162.5C528.3 164.7 542.7 172.3 557 175.3C571.3 178.3 585.7 176.7 600 175.5C614.3 174.3 628.7 173.7 643 172.2C657.3 170.7 671.7 168.3 686 166C700.3 163.7 714.7 161.3 728.8 161.8C743 162.3 757 165.7 771.2 166.3C785.3 167 799.7 165 814 163C828.3 161 842.7 159 857 159.3C871.3 159.7 885.7 162.3 892.8 163.7L900 165L900 201L892.8 201C885.7 201 871.3 201 857 201C842.7 201 828.3 201 814 201C799.7 201 785.3 201 771.2 201C757 201 743 201 728.8 201C714.7 201 700.3 201 686 201C671.7 201 657.3 201 643 201C628.7 201 614.3 201 600 201C585.7 201 571.3 201 557 201C542.7 201 528.3 201 514 201C499.7 201 485.3 201 471.2 201C457 201 443 201 428.8 201C414.7 201 400.3 201 386 201C371.7 201 357.3 201 343 201C328.7 201 314.3 201 300 201C285.7 201 271.3 201 257 201C242.7 201 228.3 201 214 201C199.7 201 185.3 201 171.2 201C157 201 143 201 128.8 201C114.7 201 100.3 201 86 201C71.7 201 57.3 201 43 201C28.7 201 14.3 201 7.2 201L0 201Z" fill="#FF0066" stroke-linecap="round" stroke-linejoin="miter"></path></svg>